<svg width="27" height="39" viewBox="0 0 27 39" fill="none" xmlns="http://www.w3.org/2000/svg">
<path d="M14.0595 39C13.5205 39 13.0519 38.6056 12.9582 38.072C12.9348 37.9096 10.0293 21.7857 1.5942 21.1825C1.40675 21.1825 1.19587 21.1825 1.00843 21.1593C0.422652 21.0897 -0.0225471 20.5793 0.000883833 19.9993C0.0243148 19.3961 0.516376 18.9321 1.12558 18.9321C1.2896 18.9321 1.45361 18.9321 1.61763 18.9553C2.53143 18.9089 3.63269 18.3754 4.7808 17.4242C9.13896 13.8282 13.1222 5.52265 13.4971 1.02188C13.544 0.465088 13.9892 0.0474922 14.5515 0.00109251C15.0904 -0.0221073 15.6059 0.325887 15.723 0.882683C16.7774 5.61545 20.6436 17.981 25.9624 18.3986C26.4544 18.445 26.8527 18.793 26.9699 19.2569C27.0871 19.7209 26.8528 20.2313 26.431 20.4633C26.3373 20.5329 16.2385 26.4721 15.1842 37.9792C15.1373 38.536 14.6686 38.9768 14.1063 39C14.0829 39 14.0829 39 14.0595 39ZM5.20254 19.9297C9.8653 22.2729 12.5599 28.4209 13.9423 32.8288C16.0511 26.1937 20.667 21.9017 23.3381 19.8833C19.0268 17.5866 16.1917 10.5106 14.6921 5.75465C13.0753 10.5338 9.81845 16.1946 6.21009 19.1641C5.88205 19.4425 5.53058 19.6977 5.20254 19.9297Z" fill="#FFDF57"/>
</svg>
