<svg width="23" height="29" viewBox="0 0 23 29" fill="none" xmlns="http://www.w3.org/2000/svg">
<path d="M13.3962 0C12.9263 0 12.5087 0.248251 12.2737 0.645437C10.6814 3.57469 5.53895 11.2702 1.12741 11.7418C0.52702 11.7915 0.0832581 12.2631 0.00494661 12.8093C-0.047261 13.3802 0.318199 13.9015 0.892483 14.0505C7.67947 16.0364 10.6292 27.952 10.6553 28.0761C10.7858 28.5726 11.2296 28.945 11.7778 28.9946C12.2999 29.0443 12.8219 28.7464 13.0308 28.2747C15.8239 22.019 20.0266 15.0434 21.9583 14.7207C22.4281 14.6463 22.7936 14.3235 22.9502 13.9015C23.0807 13.4795 22.9502 13.0079 22.6109 12.6851C20.4965 10.7489 14.9363 4.86554 14.6492 1.09227C14.597 0.570961 14.2054 0.124121 13.6572 0C13.5789 0 13.4745 0 13.3962 0ZM4.4426 13.1072C8.04492 11.1957 11.1774 7.02524 12.9785 4.26976C14.5448 7.79478 17.8861 11.4439 19.6872 13.2561C16.8941 15.3662 13.9444 20.6537 12.1171 24.3773C10.8902 21.0012 8.46258 15.7882 4.4426 13.1072Z" fill="#FFDF57"/>
</svg>
