<svg width="94" height="94" viewBox="0 0 94 94" fill="none" xmlns="http://www.w3.org/2000/svg">
<mask id="mask0" mask-type="alpha" maskUnits="userSpaceOnUse" x="0" y="0" width="94" height="94">
<circle cx="47" cy="47" r="47" fill="#C4C4C4"/>
</mask>
<g mask="url(#mask0)">
<circle cx="47" cy="47" r="47" fill="#7C3FFF"/>
<path d="M63.439 17.5441C60.1361 17.5441 60.549 17.3129 60.549 19.7735C60.549 22.2342 61.1765 21.6727 63.3399 21.7883C65.5032 21.9039 65.2721 21.1112 65.206 19.5589C65.0904 17.5441 64.9913 17.5441 63.439 17.5441Z" fill="white"/>
<path d="M63.7196 22.2506C63.5875 22.2506 63.4554 22.2506 63.3233 22.2341C62.9434 22.2176 62.5966 22.2175 62.2994 22.2175C61.5397 22.2175 60.9948 22.2341 60.5984 21.8212C60.1856 21.4249 60.1195 20.7313 60.1195 19.7734C60.1195 19.4927 60.1195 19.2615 60.103 19.0468C60.0865 18.2706 60.07 17.7917 60.4168 17.4449C60.7966 17.0651 61.3581 17.0651 62.6957 17.0816C62.9269 17.0816 63.1746 17.0816 63.4554 17.0816C65.3215 17.0816 65.5527 17.3293 65.6518 19.5257L65.6683 19.8725C65.7178 20.6817 65.7509 21.3258 65.305 21.7882C64.9912 22.1185 64.5123 22.2506 63.7196 22.2506ZM62.5801 21.3258C62.8113 21.3258 63.0755 21.3258 63.3728 21.3423C64.2481 21.3918 64.5783 21.2597 64.6774 21.1606C64.8426 20.9955 64.8095 20.5331 64.7765 19.9386L64.76 19.5918C64.727 19.0303 64.694 18.2706 64.5453 18.1055C64.4462 17.9899 64.0003 17.9899 63.4554 17.9899C63.1746 17.9899 62.9269 17.9899 62.6957 17.9899C61.903 17.9899 61.1599 17.9734 61.0443 18.089C60.9782 18.155 60.9782 18.6505 60.9948 19.0303C60.9948 19.245 61.0113 19.4927 61.0113 19.7734C61.0113 20.0707 61.0113 20.979 61.226 21.1937C61.3581 21.3258 61.7709 21.3258 62.2994 21.3258C62.382 21.3258 62.481 21.3258 62.5801 21.3258Z" fill="black"/>
<path d="M26.5957 28.8398C26.3645 23.8029 26.7113 24.48 29.172 24.2488C31.6326 24.0176 31.4014 24.9259 31.6326 27.7168C31.8968 31.1848 26.5957 28.8398 26.5957 28.8398Z" fill="#F26AAC"/>
<path d="M31.682 28.7737C31.2526 23.357 31.8967 24.0836 36.5537 23.8359C41.2272 23.5882 40.7978 24.5626 41.2272 27.5681C41.7392 31.3004 31.682 28.7737 31.682 28.7737Z" fill="#F26AAC"/>
<path d="M37.9409 63.338C27.0745 63.338 25.6213 63.0738 25.4891 63.0407C25.291 62.9912 25.1589 62.826 25.1423 62.6279C25.1423 62.5453 24.6965 53.7432 24.2506 39.3593L24.2176 38.1703C23.9698 30.4747 23.8873 28.1461 29.6672 27.7003C30.6086 27.6342 31.7976 27.6012 33.4985 27.6012C34.4399 27.6012 35.4637 27.6177 36.6032 27.6177C37.9904 27.6342 39.5428 27.6507 41.2768 27.6507C44.464 27.6507 47.4861 27.6012 50.5082 27.5021C51.4495 27.4691 52.3578 27.436 53.2165 27.403L53.712 27.3865C54.5542 27.3535 55.3469 27.3204 56.09 27.2874C58.4185 27.1883 60.4168 27.0892 62.0682 27.0892C65.0407 27.0892 67.3032 27.37 68.6739 28.7407C70.6721 30.7389 70.6556 34.8509 70.6556 43.0255V45.1723C70.6556 61.9508 69.7143 63.305 57.9726 63.305C57.0644 63.305 56.0735 63.305 55.0166 63.2884C53.7945 63.2719 52.4734 63.2719 51.0532 63.2719C50.1779 63.2719 49.2531 63.2719 48.2953 63.2884C44.431 63.3215 40.9465 63.338 37.9409 63.338Z" fill="white"/>
<path d="M62.0682 27.5187C70.6391 27.5187 70.1932 29.9628 70.1932 45.1559C70.1932 61.6371 69.4501 62.8427 57.9561 62.8427C55.9909 62.8427 53.6955 62.8096 51.0367 62.8096C50.1614 62.8096 49.2366 62.8096 48.2788 62.8262C44.1172 62.8757 40.7153 62.8922 37.9409 62.8922C26.8103 62.8922 25.5882 62.6115 25.5882 62.6115C25.5882 62.6115 25.1424 53.892 24.6965 39.3594C24.4322 30.6234 24.0854 28.5921 29.6838 28.1628C30.7242 28.0802 31.9792 28.0637 33.482 28.0637C35.5628 28.0637 38.1225 28.1132 41.2603 28.1132C43.9025 28.1132 46.9742 28.0802 50.5082 27.9646C51.6477 27.9316 52.7046 27.882 53.712 27.849C57.18 27.6839 59.9048 27.5187 62.0682 27.5187ZM62.0682 26.627C60.4168 26.627 58.402 26.726 56.0735 26.8251C55.3139 26.8582 54.5212 26.8912 53.6955 26.9242L53.2331 26.9407C52.3743 26.9738 51.466 27.0068 50.5082 27.0398C47.4861 27.1389 44.4805 27.1884 41.2933 27.1884C39.5758 27.1884 38.0069 27.1719 36.6197 27.1554C35.4803 27.1389 34.4399 27.1389 33.5151 27.1389C31.7646 27.1389 30.6086 27.1719 29.6507 27.238C23.4579 27.7169 23.5405 30.5573 23.7882 38.1704L23.8212 39.3594C24.2671 53.7433 24.713 62.5454 24.713 62.628C24.7295 63.0243 25.0102 63.3546 25.4066 63.4537C25.6213 63.5032 27.2562 63.7675 37.9574 63.7675C40.963 63.7675 44.4475 63.751 48.3118 63.7014C49.2697 63.6849 50.1779 63.6849 51.0532 63.6849C52.4734 63.6849 53.7615 63.7014 55.0166 63.7014C56.0735 63.7014 57.0479 63.7179 57.9727 63.7179C63.4554 63.7179 67.1876 63.5032 69.1363 60.6628C70.9694 57.9875 71.1015 53.0167 71.1015 45.1394C71.1015 44.3963 71.1015 43.6862 71.1015 42.9926C71.118 34.4217 71.118 30.5078 68.9876 28.3775C67.5014 26.9242 65.1398 26.627 62.0682 26.627Z" fill="black"/>
<path d="M51.532 35.8914C50.4091 35.8419 31.8636 36.4529 30.7406 36.007C29.7498 35.6107 29.6342 33.1336 29.7002 28.1628C33.4324 27.882 39.7739 28.3114 50.5247 27.9646C51.6642 27.9316 52.7211 27.882 53.7284 27.849C53.8771 34.3226 54.4386 35.9905 51.532 35.8914Z" fill="#B3BFE2"/>
<path d="M38.6676 25.3718C37.1814 25.3883 35.6951 25.4214 34.1923 25.4379C33.6143 25.4379 33.6143 26.3462 34.1923 26.3297C35.6786 26.3131 37.1649 26.2801 38.6676 26.2636C39.2456 26.2636 39.2456 25.3718 38.6676 25.3718Z" fill="black"/>
<path d="M29.7168 25.3553C29.2379 25.3883 28.7425 25.4213 28.2636 25.4544C27.6856 25.4874 27.6856 26.3957 28.2636 26.3461C28.7425 26.3131 29.2379 26.2801 29.7168 26.247C30.2948 26.214 30.2948 25.3222 29.7168 25.3553Z" fill="black"/>
<path d="M62.3821 19.5588C59.0792 19.5588 59.4921 19.3276 59.4921 21.7882C59.4921 24.2488 60.1196 23.6873 62.283 23.8029C64.4464 23.9185 64.2152 23.1258 64.1491 21.5735C64.05 19.5588 63.9344 19.5588 62.3821 19.5588Z" fill="white"/>
<path d="M62.6627 24.2654C62.5306 24.2654 62.3985 24.2653 62.2664 24.2488C61.8866 24.2323 61.5398 24.2323 61.2425 24.2323C60.4829 24.2323 59.9379 24.2323 59.5415 23.836C59.1287 23.4396 59.0626 22.746 59.0626 21.7882C59.0626 21.5075 59.0626 21.2763 59.0461 21.0616C59.0296 20.2854 59.0131 19.8065 59.3599 19.4597C59.7397 19.0799 60.3012 19.0799 61.6388 19.0964C61.87 19.0964 62.1178 19.0964 62.3985 19.0964C64.2646 19.0964 64.4958 19.3441 64.5949 21.5405L64.6114 21.8873C64.6609 22.6965 64.694 23.3406 64.2481 23.803C63.9343 24.1167 63.4554 24.2654 62.6627 24.2654ZM61.5232 23.3406C61.7544 23.3406 62.0187 23.3406 62.3159 23.3571C63.1912 23.4066 63.5215 23.2745 63.6205 23.1754C63.7857 23.0103 63.7527 22.5479 63.7196 21.9534L63.7031 21.6066C63.6701 21.0451 63.6371 20.2854 63.4884 20.1203C63.3894 20.0047 62.9435 20.0047 62.3985 20.0047C62.1178 20.0047 61.87 20.0047 61.6388 20.0047C60.8462 20.0047 60.103 19.9882 59.9874 20.1038C59.9214 20.1698 59.9214 20.6652 59.9379 21.0451C59.9379 21.2598 59.9544 21.5075 59.9544 21.7882C59.9544 22.0855 59.9544 22.9938 60.1691 23.2084C60.3012 23.3406 60.714 23.3406 61.2425 23.3406C61.3251 23.3406 61.4242 23.3406 61.5232 23.3406Z" fill="black"/>
<path d="M57.7085 20.6818H54.3561C53.7781 20.6818 53.7781 21.5735 54.3561 21.5735H57.7085C58.2865 21.5735 58.2865 20.6818 57.7085 20.6818Z" fill="black"/>
<path d="M71.5309 22.2836L67.8317 18.3698C67.4354 17.9569 66.8079 18.5845 67.2042 18.9973L70.9034 22.9112C71.2997 23.3406 71.9273 22.6965 71.5309 22.2836Z" fill="black"/>
<path d="M70.5069 17.9901C69.4334 19.4433 68.36 20.8966 67.2701 22.3498C66.9233 22.8122 67.6994 23.2581 68.0462 22.7957C69.1197 21.3424 70.1931 19.8892 71.283 18.4359C71.6133 17.9735 70.8372 17.5277 70.5069 17.9901Z" fill="black"/>
<path d="M60.136 29.2857C58.6001 29.1206 57.0808 29.1206 55.545 29.2857C54.9835 29.3518 54.967 30.2435 55.545 30.1775C57.0808 30.0123 58.6001 30.0123 60.136 30.1775C60.6974 30.2435 60.6974 29.3518 60.136 29.2857Z" fill="#B3BFE2"/>
<path d="M63.1581 32.3243C60.5819 32.3409 58.0222 32.3409 55.4459 32.3574C54.868 32.3574 54.868 33.2491 55.4459 33.2491C58.0222 33.2326 60.5819 33.2326 63.1581 33.2161C63.7196 33.2161 63.7196 32.3243 63.1581 32.3243Z" fill="#B3BFE2"/>
<path d="M61.4738 54.6846C53.3488 54.569 45.2238 54.4534 37.0988 54.3213C36.5208 54.3048 36.5208 55.213 37.0988 55.213C45.2238 55.3286 53.3488 55.4442 61.4738 55.5764C62.0518 55.5764 62.0518 54.6846 61.4738 54.6846Z" fill="#B3BFE2"/>
<path d="M57.5597 57.5912C50.8549 57.2774 44.1502 57.2774 37.4289 57.5582C36.8509 57.5747 36.8509 58.483 37.4289 58.4499C44.1336 58.1692 50.8384 58.1692 57.5597 58.483C58.1377 58.516 58.1377 57.6077 57.5597 57.5912Z" fill="#B3BFE2"/>
<path d="M73.4961 52.2569C71.7621 52.1578 72.0428 52.3725 72.0924 55.8405C72.1584 59.5893 71.7621 60.1507 73.1493 60.0847C74.553 60.0351 74.3713 60.2003 74.3218 56.4516C74.2722 52.323 74.4374 52.323 73.4961 52.2569Z" fill="black"/>
<path d="M47.2384 41.5392C36.6693 41.6052 34.7537 38.7152 32.1939 39.3428C27.2727 40.5318 26.6121 44.0163 26.6121 46.9063C26.5956 53.3964 29.2214 51.2991 46.8916 51.167C64.5619 51.0349 67.3197 50.9193 67.8317 45.7503C68.3106 40.5979 64.6775 41.4236 47.2384 41.5392Z" fill="black"/>
<path d="M49.9137 38.8639C30.8893 38.996 29.3039 37.7409 29.2874 44.231C29.2709 50.7211 31.8967 48.6238 49.5669 48.4917C67.2372 48.3595 67.4683 48.8054 67.9803 43.6365C68.4757 38.484 67.3693 38.7483 49.9137 38.8639Z" fill="#5C68FF"/>
<path d="M42.218 40.0693C41.3097 40.6143 41.2602 45.7667 42.218 46.2456C43.1758 46.7245 56.3046 46.5594 56.6349 46.0805C56.9487 45.6016 56.8 41.0106 56.156 40.2179C55.5119 39.4252 43.0107 39.5904 42.218 40.0693Z" fill="#FDD05B"/>
<path d="M55.0993 40.0198C54.224 40.6309 53.3322 41.2584 52.457 41.8694C51.6148 42.4639 50.3432 43.7355 49.3358 43.7355C48.2789 43.7355 47.0899 42.7117 46.1651 42.1832C45.0091 41.5061 43.8531 40.8455 42.7136 40.1685C42.2182 39.8712 41.7723 40.6474 42.2677 40.9446C43.8035 41.8364 45.3393 42.7282 46.8752 43.6365C47.5853 44.0493 48.5101 44.8915 49.4184 44.842C50.1945 44.809 51.0037 43.9998 51.5982 43.5869C52.9194 42.6621 54.2405 41.7373 55.5617 40.796C56.0241 40.4492 55.5782 39.673 55.0993 40.0198Z" fill="white"/>
<path d="M46.7264 42.9594C45.3062 43.7355 43.919 44.5943 42.5648 45.4861C42.0859 45.7998 42.5318 46.576 43.0107 46.2622C44.3649 45.3539 45.7521 44.5117 47.1723 43.7355C47.6842 43.4383 47.2383 42.6786 46.7264 42.9594Z" fill="white"/>
<path d="M56.0405 45.1392C54.868 44.2969 53.6955 43.4547 52.523 42.6125C52.0606 42.2822 51.6147 43.0584 52.0771 43.3887C53.2496 44.2309 54.4221 45.0731 55.5946 45.9153C56.057 46.2456 56.5029 45.4695 56.0405 45.1392Z" fill="white"/>
<path d="M15.6304 66.1785C14.7221 61.0426 20.403 55.5929 26.0674 55.8901C26.0674 55.8901 29.3207 50.9524 31.1372 47.8477C32.1776 46.0642 32.6235 43.8182 35.464 44.8586C38.3044 45.899 32.3263 56.336 32.3263 56.336C32.3263 56.336 33.4327 55.4112 35.1502 56.4846C36.3392 57.2278 36.4878 59.1599 36.4878 59.1599C36.4878 59.1599 38.7173 58.5654 39.6255 60.4976C40.8806 63.2224 33.3667 73.9072 31.8804 75.5586C30.262 77.3421 16.0928 68.7217 15.6304 66.1785Z" fill="#FF1A36"/>
<path d="M34.8362 46.0805C34.6711 47.1374 33.5977 47.6328 32.6894 47.0383C32.2105 46.7246 31.7646 47.5007 32.2435 47.8145C33.5977 48.7228 35.4473 47.9466 35.695 46.3282C35.7776 45.7502 34.9188 45.519 34.8362 46.0805Z" fill="black"/>
<path d="M25.0598 56.2203C23.4909 57.9873 21.9386 59.7544 20.3697 61.5379C19.9899 61.9673 20.6175 62.6113 20.9973 62.1654C22.5661 60.3984 24.1185 58.6314 25.6873 56.8479C26.0837 56.4185 25.4561 55.7909 25.0598 56.2203Z" fill="black"/>
<path d="M31.8306 55.9891C31.5333 56.5836 31.2361 57.1781 30.9388 57.7727C30.6746 58.2846 31.4508 58.747 31.715 58.2185C32.0123 57.624 32.3095 57.0295 32.6068 56.435C32.8545 55.9231 32.0948 55.4772 31.8306 55.9891Z" fill="black"/>
<path d="M36.7519 58.9452C36.5207 58.8131 36.2895 58.9121 36.1409 59.1103C35.8436 59.5066 35.5464 59.903 35.2491 60.3159C35.1005 60.514 35.2161 60.8113 35.4143 60.9269C35.6455 61.059 35.8767 60.9599 36.0253 60.7617C36.3225 60.3654 36.6198 59.969 36.9171 59.5562C37.0492 59.3745 36.9501 59.0608 36.7519 58.9452Z" fill="black"/>
<path d="M79.4577 35.3298C77.3769 36.1886 75.2796 37.0473 73.1988 37.8895C72.6703 38.1042 72.9015 38.963 73.43 38.7483C75.5108 37.8895 77.6081 37.0308 79.6889 36.1886C80.2339 35.9739 80.0027 35.1151 79.4577 35.3298Z" fill="#FDD05B"/>
<path d="M79.3753 46.6257L73.4301 44.4293C72.8852 44.2311 72.654 45.0898 73.1989 45.288L79.1441 47.4844C79.6725 47.6826 79.9037 46.8238 79.3753 46.6257Z" fill="#FDD05B"/>
<path d="M20.3533 33.117C18.0413 31.928 15.7293 30.739 13.4173 29.5334C12.9054 29.2692 12.4595 30.0454 12.9714 30.3096C15.2834 31.4986 17.5954 32.6877 19.9074 33.8932C20.4193 34.1409 20.8652 33.3813 20.3533 33.117Z" fill="#FDD05B"/>
<path d="M19.7753 38.9135C18.289 39.0291 16.7862 39.1281 15.3 39.2437C14.722 39.2933 14.722 40.185 15.3 40.1355C16.7862 40.0199 18.289 39.9208 19.7753 39.8052C20.3533 39.7722 20.3533 38.8639 19.7753 38.9135Z" fill="#FDD05B"/>
<path d="M56.9488 65.8811C50.5743 65.782 50.7064 66.5912 50.1284 68.672C49.154 72.14 51.0201 71.7602 54.8845 71.8758C57.3451 71.9418 57.7249 71.4959 58.0222 69.861C58.2369 68.639 59.2938 65.9141 56.9488 65.8811Z" fill="#5C68FF"/>
<path d="M56.2223 65.848C49.8478 65.848 50.9708 66.2939 50.1781 68.3086C49.4019 70.3234 52.4075 69.8775 54.8681 69.8775C57.3288 69.8775 57.7086 69.4977 58.0058 67.8628C58.237 66.6242 58.8976 65.848 56.2223 65.848Z" fill="#F26AAC"/>
<path d="M74.9495 65.9472C60.8629 65.7656 60.0867 66.773 59.7068 68.8868C58.9967 72.8667 60.1362 71.8758 73.4467 71.8758C75.9073 71.8758 76.2376 71.496 76.5844 69.8611C76.8321 68.6556 77.0798 67.2519 76.8651 66.5418C76.667 65.9803 76.2376 65.9638 74.9495 65.9472Z" fill="#5C68FF"/>
<path d="M74.7842 65.8481C59.2443 65.7325 60.582 66.294 59.8058 68.3087C59.0296 70.3234 60.6976 69.8776 73.4466 69.8776C75.9072 69.8776 76.287 69.4977 76.5843 67.8628C76.7824 66.6243 77.4595 65.8481 74.7842 65.8481Z" fill="#F26AAC"/>
<path d="M71.3656 67.4995C68.6242 67.5325 65.8829 67.5656 63.1415 67.5986C62.5635 67.5986 62.5635 68.5069 63.1415 68.4904C65.8829 68.4573 68.6242 68.4243 71.3656 68.3913C71.9436 68.3913 71.9436 67.4995 71.3656 67.4995Z" fill="white"/>
<path d="M47.0239 65.8811C40.6494 65.8811 41.2769 67.5986 40.5338 68.7546C39.4934 72.7841 42.8623 71.8923 45.3229 71.8923C47.7835 71.8923 48.1799 71.5125 48.4606 69.8776C48.8239 67.7472 49.7157 65.8811 47.0239 65.8811Z" fill="#5C68FF"/>
<path d="M46.6769 65.848C40.3024 65.848 41.4254 66.2939 40.6327 68.3086C39.8565 70.3234 42.8621 69.8775 45.3227 69.8775C47.7833 69.8775 48.1632 69.4977 48.4604 67.8628C48.6916 66.6242 49.3687 65.848 46.6769 65.848Z" fill="#F26AAC"/>
<path d="M45.8678 74.0722C39.4933 74.2538 40.352 74.997 39.2291 76.7475C38.1061 80.6614 40.0878 80.1824 43.9852 80.0668C46.4458 80.0008 46.8256 79.687 47.1229 78.0521C47.3541 76.8301 48.5596 74.0061 45.8678 74.0722Z" fill="#5C68FF"/>
<path d="M45.3392 74.0392C38.9647 74.0392 40.0877 74.4851 39.295 76.4998C38.5189 78.5145 41.5245 78.0687 43.9851 78.0687C46.4457 78.0687 46.8255 77.6888 47.1228 76.0539C47.354 74.8319 48.0145 74.0392 45.3392 74.0392Z" fill="#F26AAC"/>
<path d="M54.6862 68.1435C54.3725 68.16 54.0422 68.193 53.7284 68.2096C53.7945 68.0114 53.8605 67.8297 53.9266 67.6316C54.1082 67.0866 53.2495 66.8554 53.0678 67.4004C52.9357 67.7967 52.8036 68.193 52.6715 68.5894C52.5889 68.8536 52.8201 69.1674 53.1009 69.1509C53.6293 69.1178 54.1578 69.0683 54.6862 69.0353C55.2642 69.0022 55.2642 68.1105 54.6862 68.1435Z" fill="white"/>
<path d="M45.6863 66.7894C44.745 67.3509 43.7871 67.9289 42.8458 68.4904C42.3504 68.7876 42.7963 69.5638 43.2917 69.2666C44.233 68.7051 45.1908 68.1271 46.1322 67.5656C46.6276 67.2683 46.1817 66.4922 45.6863 66.7894Z" fill="white"/>
<path d="M44.5303 75.7732C43.9853 75.509 43.4568 75.2117 42.9944 74.8154C42.5486 74.452 41.921 75.0796 42.3669 75.4429C42.6972 75.7071 43.0275 75.9548 43.3908 76.1695C42.9779 76.4007 42.5651 76.6319 42.1522 76.8796C41.6568 77.1604 42.1027 77.9365 42.5981 77.6558C43.2422 77.2925 43.8862 76.9292 44.5303 76.5494C44.811 76.4007 44.844 75.9218 44.5303 75.7732Z" fill="white"/>
</g>
</svg>
